<svg xmlns="http://www.w3.org/2000/svg" version="1.1" x="0" y="0" width="280" height="89" viewBox="0" enable-background="new 0 0 280 89" xml:space="preserve"><image overflow="visible" width="280" height="89"/><rect fill="#B8252B" width="280" height="89"/><path fill="#FFFFFF" d="M36.073 32.338c0-5.228-4.26-3.588-4.26-4.972 0-0.359 0.416-0.512 0.727-0.513 1.611 0 3.118 0.205 4.676 0.205 3.43 0 6.807-0.205 11.274-0.205 9.196 0 18.237 6.868 18.237 16.351 0 11.79-5.664 19.94-20.055 19.94 -2.649 0-5.3-0.205-7.95-0.205 -0.467 0-5.456 0.205-5.818 0.205 -0.416 0-0.52-0.205-0.52-0.514 0-1.179 3.689 0.102 3.689-4.767V32.338zM40.179 55.711c0 0.82-0.156 3.281 0.311 3.741 1.715 1.692 5.663 2.307 8.001 2.307 7.378 0 14.391-3.895 14.391-15.735 0-11.379-7.688-17.837-17.561-17.889 -4.934 0-5.142 0.82-5.142 3.229V55.711z"/><path fill="#FFFFFF" d="M74.623 41.77c0 1.743-0.104 1.743 1.975 1.743h5.61c5.404 0 4.001-4.101 5.249-4.101 0.415 0 0.572 0.564 0.572 0.974 0 1.794-0.105 3.537-0.105 5.178 0 1.332 0.105 2.665 0.105 4.049 0 0.459-0.21 0.666-0.572 0.666 -1.612 0 0.155-4.511-4.208-4.511h-7.689c-1.091 0-0.936 0.87-0.936 1.641v9.43c0 3.024-0.416 4.256 3.948 4.256 12.002 0 13.769-5.279 14.444-5.279 0.364 0 0.416 0.512 0.416 0.614 0 1.846-1.351 3.64-2.598 4.973 -1.663 1.844-2.805 1.743-5.091 1.743 -3.948 0-7.897-0.309-11.846-0.205 -2.078 0.05-4.26 0.205-6.338 0.205 -0.468 0-0.779-0.104-0.779-0.514 0.103-0.614 0.624-0.512 2.285-1.332 1.35-0.615 1.455-2.051 1.455-4.461V33.465c0-2.306 0-4.766-2.806-5.176 -0.416-0.103-1.559-0.206-1.559-0.821 0-0.41 0.312-0.614 1.819-0.615 9.819 0 12.521 0.205 14.703 0.205 1.04 0 5.818-0.205 7.429-0.205 0.416 0 0.52 0.512 0.52 1.127 0 5.689-0.728 6.1-1.039 6.1 -1.247 0-0.416-2.46-1.247-3.64 -1.351-1.743-6.755-1.436-8.833-1.436 -4.988 0-4.884-0.205-4.884 3.229V41.77z"/><path fill="#FFFFFF" d="M98.782 36.951c0-10.661-6.286-7.688-6.286-9.585 0-0.308 0.519-0.512 0.779-0.513 0.832 0 1.612 0.205 2.442 0.205 0.78 0 1.61-0.205 2.39-0.205 0.571 0 1.039 0.82 1.351 1.178l24.781 27.218c0.313 0.359 0.521 0.564 0.624 0.564 0.104 0 0.156-0.155 0.156-0.564V33.825c0-6.715-5.767-4.768-5.767-6.459 0-0.359 0.26-0.512 0.571-0.513 1.56 0 3.066 0.205 4.729 0.205 1.766 0 4-0.205 5.246-0.205 0.312 0 0.521 0.153 0.521 0.461 0 1.333-3.065 0.41-3.065 4.151v29.678c0 1.486-0.052 2.205-0.468 2.205 -0.363 0-0.882-0.256-1.974-1.437L102.47 37.105c-0.104-0.103-0.726-0.974-1.09-0.974 -0.207 0-0.364 0.154-0.364 1.179v20.964c0 4.612 4.572 2.819 4.572 4.203 0 0.255-0.052 0.667-0.571 0.667 -1.248 0-2.703-0.205-5.247-0.205 -1.819 0-4.521 0.205-4.883 0.205 -0.625 0-0.677-0.309-0.677-0.564 0-1.795 4.572 0.461 4.572-6.716V36.951z"/><path fill="#FFFFFF" d="M137.125 31.261c-0.053-3.741-4.209-2.716-4.209-3.844 0-0.461 0.104-0.563 0.52-0.564 1.922 0 3.793 0.205 5.715 0.205 1.61 0 3.221-0.205 4.831-0.205 0.832 0 0.988 0.102 0.988 0.512 0 1.23-3.741 0.051-3.741 3.896v27.526c0 3.485 4.623 2.307 4.623 3.844 0 0.358-0.155 0.514-1.037 0.514 -1.195 0-3.43-0.205-5.664-0.205 -3.169 0-4.261 0.205-4.988 0.205 -0.934 0-1.09-0.258-1.09-0.77 0-1.486 4.052 0.205 4.052-4.869V31.261z"/><path fill="#FFFFFF" d="M146.01 54.071c-0.208-1.026 0.05-1.59 0.571-1.59 0.727 0 0.727 0.616 0.986 1.691 0.623 2.358 3.741 7.689 10.91 7.689 4.937 0 9.768-2.716 9.768-8.099 0-9.892-21.094-4.357-21.094-17.735 0-6.51 5.56-9.637 11.534-9.637 6.286 0 8.001 1.846 8.729 1.846 0.468 0 0.572-0.564 1.092-0.564 0.311 0 0.57 0.154 0.623 0.718l0.779 6.971c0.052 0.411-0.053 0.769-0.571 0.769 -0.571 0-0.936-1.077-1.092-1.538 -1.559-4.408-5.351-6.664-9.924-6.664 -4.104 0-8.468 1.948-8.468 6.664 0 9.637 21.094 3.999 21.094 18.146 0 4.307-3.065 10.765-14.859 10.765 -3.845 0-8.572-1.896-8.78-2.819L146.01 54.071z"/><path fill="#FFFFFF" d="M173.232 44.794c0-10.662 8.417-18.402 19.067-18.402 10.6 0 18.757 7.535 18.757 18.145 0 11.535-8.054 18.966-19.639 18.966C180.144 63.503 173.232 55.609 173.232 44.794zM177.025 43.308c0 9.481 6.287 18.658 16.575 18.658 7.584 0 13.662-5.998 13.662-15.479 0-9.33-6.39-18.403-16.521-18.403C182.013 28.083 177.025 35.208 177.025 43.308z"/><path fill="#FFFFFF" d="M214.538 36.951c0-10.661-6.287-7.688-6.287-9.585 0-0.308 0.52-0.512 0.779-0.513 0.831 0 1.61 0.205 2.441 0.205 0.78 0 1.611-0.205 2.391-0.205 0.572 0 1.038 0.82 1.351 1.178l24.783 27.218c0.312 0.359 0.519 0.564 0.623 0.564 0.103 0 0.155-0.155 0.155-0.564V33.825c0-6.715-5.767-4.768-5.767-6.459 0-0.359 0.261-0.512 0.571-0.513 1.56 0 3.065 0.205 4.729 0.205 1.766 0 4-0.205 5.247-0.205 0.312 0 0.52 0.153 0.52 0.461 0 1.333-3.065 0.41-3.065 4.151v29.678c0 1.486-0.053 2.205-0.468 2.205 -0.364 0-0.884-0.256-1.976-1.437l-22.339-24.808c-0.104-0.103-0.728-0.974-1.092-0.974 -0.207 0-0.363 0.154-0.363 1.179v20.964c0 4.612 4.571 2.819 4.571 4.203 0 0.255-0.052 0.667-0.57 0.667 -1.247 0-2.702-0.205-5.248-0.205 -1.818 0-4.52 0.205-4.884 0.205 -0.623 0-0.676-0.309-0.676-0.564 0-1.795 4.573 0.461 4.573-6.716V36.951z"/></svg>